<?xml version="1.0" encoding="utf-8"?>
<!-- Generator: Adobe Illustrator 24.3.0, SVG Export Plug-In . SVG Version: 6.00 Build 0)  -->
<svg version="1.1" id="Layer_1" xmlns="http://www.w3.org/2000/svg" xmlns:xlink="http://www.w3.org/1999/xlink" x="0px" y="0px"
	 viewBox="0 0 500 500" style="enable-background:new 0 0 500 500;" xml:space="preserve">
<style type="text/css">
	.st0{fill:#F15B47;}
	.st1{fill:#9B645A;}
</style>
<g>
	<g>
		<path class="st0" d="M180.6,319.6c-8.6-6.9-15.4-15.2-19.1-28c-11.2,28.1-12.3,54.9-5.1,82.5c7.3,28.1,22.2,49.8,49.8,61.5
			c-33.1-5.6-60.9-19.6-80.6-47.8c-17.4-25-24.8-53.1-29-82.9c-4.8-34.4,2.1-66.7,11.9-99.4c8.4,18.8,17.6,36.2,37.3,48.1
			c-3-44,5.5-84.1,26.6-121.1c21.2-37,49.8-66.6,90.4-86.5c-3.1,16.1-6.7,30.3-8.5,44.7c-4.2,34.3-1.3,67,25.2,93.1
			c1.4,1.4,2.6,3.8,6.1,2.9c2-16.9,4-34,6-51.1c25,7,59.5,55.5,61.1,106.6c16.7-12.4,28.5-27.8,37.7-46.6
			c9.6,17.3,13.9,35.1,16.7,53c5.4,34.4,3.2,68.5-8.4,101.8c-11,31.7-28.8,58.2-57.7,76.2c-14.3,8.9-30.2,12.7-47.2,13.6
			c31.7-10.9,47.1-35.8,54.8-65.8c7.7-29.5,6.1-58.9-7-88.3c-7.1,7.6-10.2,16.7-17.4,22.5c-1.9,1.5-3.1,4.8-6.2,3.6
			c-3.1-1.2-2.8-4.4-3.1-7.4c-2.4-25.2-15.2-44-36.5-59.3c-2,12.1-3.7,22.6-5.6,34.3c-12.7-10.6-18.6-23.5-19.4-38.3
			c-0.8-13.4-0.8-27,3.7-40.1c1-2.8,2.4-7.1-0.8-8.9c-1.6-0.9-5.4,1.2-7.7,2.7c-31.5,20.8-52.7,49-61.3,86c-1.4,6-1.8,12.1-2.7,18.2
			C179.7,305.4,186,313.7,180.6,319.6z"/>
		<path class="st1" d="M180.6,319.6c5.4-6-0.9-14.3,4-20.3c0.1,6.1,0.4,12.2,0.3,18.4C184.8,320.6,183.8,322.9,180.6,319.6z"/>
	</g>
</g>
</svg>
