<?xml version="1.0" encoding="utf-8"?>
<!-- Generator: Adobe Illustrator 24.3.0, SVG Export Plug-In . SVG Version: 6.00 Build 0)  -->
<svg version="1.1" id="Layer_1" xmlns="http://www.w3.org/2000/svg" xmlns:xlink="http://www.w3.org/1999/xlink" x="0px" y="0px"
	 viewBox="0 0 277.2 123.3" style="enable-background:new 0 0 277.2 123.3;" xml:space="preserve">
<style type="text/css">
	.st0{fill:#151514;}
	.st1{fill:#F15C48;}
	.st2{fill:#10100F;}
</style>
<g>
	<g>
		<path class="st0" d="M70.2,70.3c3.8,1.4,7.5,3,10.4,6.5c0-6.7,0.3-13.5-0.1-20.2C80.2,52,83.1,53,85.6,53c2.4,0,5-0.9,4.7,3.4
			c-0.4,7.4-0.1,14.9-0.1,22.8c2.1-0.5,3-2,4-3.1c3.1-3.5,6.4-6.3,11.5-5.2c2.3,0.5,2.9-1.1,3.8-2.9c5.8-12.2,19.4-17.4,31.8-12.3
			c1.6,0.7,5.1,0.6,3.2,3.9c-1.4,2.4-0.9,7.3-6.5,5.1c-7.6-2.9-15-0.2-18,5.9c-2.5,5-2,10,2,14.1c4,4.2,9.1,5,14.6,3.7
			c3.3-0.8,5.6-1.7,6.2-6.3c1.2-9.9,10.1-14.4,19.1-10.5c3,1.3,5.3-1.3,8.3-1c3.3,0.4,4.2,1.1,4,4.3c-0.2,5.7-0.1,11.3-0.1,17
			c0,5.5-4.3,8.4-8.9,5.4c-1.6-1.1-2.3-1-3.5-0.3c-5.3,3-10.1,2.2-14.6-1.7c-0.9-0.7-1.2-1.3-2.6-0.4c-15.4,10-35.4-1.1-36.5-16.1
			c-0.1-1-0.5-1.9-0.8-2.9c-0.4,0.1-0.8,0.1-1,0.3c-7.8,7.3-7.8,7.4-0.2,14.8c2,2,4.1,3.8,6.3,5.9C102,101.3,96.7,94.3,91,88
			c-2.5,3.4,3.1,11.2-6.3,10.2c-3.7-0.4-5.1-1.3-3.8-5.5c-9.1,7.8-16.5,8.1-25.5,1.4c0.7,4.8-2.9,4.6-5.6,4.7
			c-4.2,0.2-7.9-1.3-9.3-5.8c-1.1-3.7-0.8-7.6-0.8-11.4c0-1.8,0.6-3.5-2.4-3.8c-1.7-0.1-1.9-6.4-0.4-6.6c4.7-0.5,2.9-3.9,2.7-5.9
			c-0.4-4.2,1.6-4.5,5-4.4c3.2,0,5.5,0.1,4.9,4.4c-0.4,2.8-1.4,6.6,4.2,5.9c2.2-0.3,0.7,2.5,2,3.8c2.3-1.9,4.9-3.4,7.7-4.6
			C65.6,70.3,67.9,70.3,70.2,70.3z M165,84.6c0-3.4-3.1-6.7-6.3-6.4c-3.7,0.4-6.2,2.6-6.2,6.4c0,3.9,2.5,6.1,6.3,6.3
			C162,91.2,165,88,165,84.6z M71.5,86c-2,0-4-0.1-6,0c-1.2,0.1-2.9-0.9-3.4,0.9c-0.5,1.9,1.1,3.3,2.5,3.8c2.3,0.8,4.9,1.2,7.1-0.5
			c1.8-1.4,3.4-1.6,5.4-0.3c0.8,0.5,2.1,1.9,3,0.8c0.6-0.7,0.4-2.2,0.4-3.3c0-1.9-1.5-1.3-2.5-1.4C75.8,86,73.7,86,71.5,86z
			 M67.3,81.1c1.5-0.9,4.3,1.1,4.4-1.5c0.1-2.5-2.5-3.4-4.7-3.3c-1.9,0.1-4.6,0.8-4.4,3.1C62.8,82.5,65.8,80.1,67.3,81.1z
			 M49.3,83.8c0,1.2,0,2.3,0,3.5c0,1.3,0,2.9,1.9,2.9c2.5,0,1.1-1.8,1.1-2.8c0.1-2.4-0.4-4.9,0.5-7.3c0.4-1.1,0.7-1.9-0.9-1.9
			c-1,0-2.5-0.6-2.6,1.3C49.3,80.9,49.3,82.3,49.3,83.8z"/>
		<path class="st1" d="M70.2,70.3c-2.3,0-4.6,0-6.9,0c1.6-6.3,2.1-12.6-1.2-18.8c-1.4,1.6-2.6,3.1-3.9,4.7c-2-7.1-3-8.7-8-12.1
			c-1.8,1.4,0,3.8-1.4,5.6C44,44.8,45.3,39,46.7,32.5c-10.5,5.5-14.2,14-15.6,24.1c-2.1-0.1-2.2-2.5-4-3.7
			c-3.2,9.8-2.2,18.4,5.1,25.8C20.3,78.2,11,58.3,17.3,38.1c2.5,2,3.5,5.5,7.1,6.8c-0.1-8.3,1.5-15.8,5.5-22.8
			C33.7,15.3,39,9.9,46.6,5.8c-2.2,10-3.7,19.1,4.1,26.9c1.8-1.9,1.7-4.2,1.8-6.4c0-1.1-0.6-2.6,0.8-3c1.3-0.4,1.9,1.1,2.7,1.8
			c4.4,3.8,7.1,8.5,7.5,14.4c0.1,1.1,0.7,2.1,1.2,3.3c3.2-1.7,4.7-4.7,6.7-7.4C76.5,44.1,76.9,57.4,70.2,70.3z"/>
		<path class="st0" d="M175.4,84.2c0-2.7,0-5.3,0-8c0-4.6,5.1-7.7,8.6-4.6c1.6,1.4,1.7,1.3,3.1,0.5c4.6-2.7,9.2-2.5,13.1,1.4
			c1.3,1.3,1.9,1.5,3.3,0.1c3.7-3.7,8.1-4.1,12.7-1.9c4.5,2.1,5.1,6.1,5.1,10.4c0,3.7-0.3,7.4,0.1,11c0.5,4.2-0.9,5.2-5.1,5.2
			c-4,0-4.8-1.3-4.5-4.8c0.3-3.6,0.1-7.3-0.1-11c-0.1-2.9-1.6-4.5-4.8-4.5c-3.3,0.1-3.7,2.3-3.8,4.7c-0.1,3.8-0.4,7.7,0,11.5
			c0.4,4.2-1.9,4.1-4.8,3.9c-2.5-0.2-5.5,0.9-5-3.7c0.4-3.6,0-7.3,0.1-11c0.1-3-0.8-5.3-4.3-5.4c-3.9-0.2-4.7,2.4-4.8,5.5
			c-0.1,3.2,0,6.3,0,9.5c0,4.7-3.5,6.8-7.9,5.1c-1.6-0.6-1.1-1.9-1.1-2.9C175.3,91.5,175.4,87.9,175.4,84.2z"/>
		<path class="st2" d="M252.4,92.1c-6.6,7.7-10.2,8.4-21,4.2c0,4.1-0.3,8,0.1,11.9c0.4,4-1.9,3.8-4.5,3.7c-2.4-0.1-4.8,0.7-4.7-3.5
			c0.3-11.1,0.1-22.3,0.2-33.4c0-1.3-1.1-3.6,1-3.7c2.6-0.1,6.4-1.7,7.6,0.9c1.2,2.7,1.5,0.9,2.4,0.3c5.3-3.3,11.2-2.9,15.6,0.9
			c4.3,3.8,5.6,10.2,3.3,15.7C252.4,90.2,252.4,91.1,252.4,92.1z M231.3,84.9c0.4,3.6,2.6,6,6.3,6c3.8,0,6.1-2.3,6.2-6.3
			c0-4-2.4-6.3-6.1-6.3C234,78.3,231.6,80.6,231.3,84.9z"/>
		<path class="st0" d="M252.4,92.1c0-1,0-1.9,0-2.9c1.7,1.4,2.3-0.6,3.2-1.1c3.7-2,7.1-1.3,8.7,2.1c1.8,3.7,0.5,6.5-3,8.1
			c-3.8,1.8-6.2-0.2-7.9-3.6C253,93.9,252.7,93,252.4,92.1z"/>
	</g>
</g>
</svg>
